<svg aria-hidden="true" style="width:0;height:0;position:absolute;overflow:hidden" xmlns="http://www.w3.org/2000/svg"><defs><symbol id="icon_round-call" viewBox="0 0 32 32"><path d="m25.64 20.347-3.387-.387a2.641 2.641 0 0 0-2.186.76l-2.453 2.453c-3.803-1.962-6.824-4.984-8.734-8.675l-.053-.112 2.467-2.467a2.656 2.656 0 0 0 .76-2.187l-.387-3.36a2.671 2.671 0 0 0-2.65-2.36H6.708c-1.507 0-2.76 1.253-2.667 2.76.707 11.387 9.813 20.48 21.187 21.187 1.507.093 2.76-1.16 2.76-2.667v-2.307c.013-1.347-1-2.48-2.347-2.64z"/></symbol><symbol id="icon-burger-menu" viewBox="0 0 32 32"><path d="M32 9a1 1 0 0 1-1 1H1a1 1 0 0 1 0-2h30a1 1 0 0 1 1 1zm0 16a1 1 0 0 1-1 1H1a1 1 0 0 1 0-2h30a1 1 0 0 1 1 1zm0-8.008a.992.992 0 0 1-.992.992H.992a.992.992 0 1 1 0-1.984h30.016c.548 0 .992.444.992.992z"/></symbol><symbol id="icon-system-uicons_loader" viewBox="0 0 32 32"><path d="M16 5.333v3.048m7.619 0-2.285 2.285M8.381 8.381l2.285 2.285M16 26.667v-3.048m7.619 0-2.285-2.285M8.381 23.619l2.285-2.285M5.333 16h3.048m15.238 0h3.048"/></symbol><symbol id="icon-clarity_window-close-line" viewBox="0 0 32 32"><path d="m18.613 15.912 12.96-12.96A1.777 1.777 0 0 0 29.064.447l.002-.002-12.96 12.96L3.146.426A1.777 1.777 0 0 0 .641 2.935l-.002-.002 12.96 12.977L.62 28.87a1.78 1.78 0 1 0 2.505 2.51l.002-.003 12.977-12.96 12.96 12.96a1.777 1.777 0 0 0 2.505-2.509l.002.002-12.96-12.96z"/></symbol><symbol id="icon-bi_arrow-up" viewBox="0 0 32 32"><path d="M16.146 3.57h-.004a.907.907 0 0 0-.907.907v21.568L9.514 20.29a.907.907 0 0 0-1.554.635v.013-.001c0 .244.096.476.267.647l7.275 7.314a.911.911 0 0 0 .998.197l-.006.002a.913.913 0 0 0 .295-.199l7.275-7.314a.919.919 0 0 0 0-1.294.903.903 0 0 0-1.288 0l-5.721 5.755V4.486a.917.917 0 0 0-.908-.916z"/></symbol><symbol id="phone" viewBox="0 0 24 24"><path d="m19.23 15.26-2.54-.29a1.988 1.988 0 0 0-1.64.57l-1.84 1.84a15.045 15.045 0 0 1-6.59-6.59l1.85-1.85c.43-.43.64-1.03.57-1.64l-.29-2.52a2.001 2.001 0 0 0-1.99-1.77H5.03c-1.13 0-2.07.94-2 2.07.53 8.54 7.36 15.36 15.89 15.89 1.13.07 2.07-.87 2.07-2v-1.73c.01-1.01-.75-1.86-1.76-1.98Z"/></symbol><symbol id="popup-arrow" viewBox="0 0 30 19"><path d="M13.472.811a2 2 0 0 1 3.057 0l12.15 14.4c1.097 1.3.172 3.289-1.529 3.289H2.85c-1.701 0-2.626-1.99-1.528-3.29L13.472.811Z"/></symbol><symbol id="icon-topcoat_next-light-1" viewBox="0 0 32 32"><path d="M23.619 2.804 10.203 16l13.416 13.196-2.072 2.042L6.096 15.992 21.547.762l2.072 2.042z"/></symbol><symbol id="icon-topcoat_next-light" viewBox="0 0 32 32"><path d="M8.381 29.196 21.797 16 8.381 2.804 10.453.762l15.451 15.246-15.451 15.23-2.072-2.042z"/></symbol><symbol id="icon-paper-clip" viewBox="0 0 35 32"><path d="M6.301 32c-1.488 0-2.811-.56-3.968-1.678C1.112 29.138.501 27.704.501 26.016c0-1.69.611-3.125 1.832-4.307L21.501 2.032A6.795 6.795 0 0 1 24.838.169l.046-.009a7.09 7.09 0 0 1 1.535-.164c.841 0 1.648.143 2.399.405l-.051-.016c1.312.432 2.523 1.173 3.634 2.227.352.363.676.758.964 1.179l.02.031c.299.44.544.902.733 1.387.369.933.583 2.014.584 3.145-.045 2.278-.845 4.182-2.4 5.709L17.801 28.965a1.013 1.013 0 0 1-.731.339h-.001a1.011 1.011 0 0 1-.751-.274c-.2-.18-.327-.438-.333-.725v-.001l-.001-.053c0-.274.109-.523.285-.706l14.499-14.902c1.178-1.162 1.778-2.603 1.8-4.323s-.544-3.13-1.699-4.226a7.44 7.44 0 0 0-2.32-1.594l-.048-.019a5.23 5.23 0 0 0-2.046-.409c-.266 0-.527.019-.783.057l.029-.003c-.998.128-1.888.57-2.666 1.323L3.867 23.126c-.821.797-1.232 1.754-1.232 2.872 0 1.117.411 2.075 1.232 2.87.379.365.79.64 1.235.822.443.182.912.253 1.4.21.976-.043 1.888-.483 2.733-1.323L24.467 12.9c.234-.226.443-.474.625-.742l.01-.016a2.44 2.44 0 0 0 .399-1.052l.001-.012a1.025 1.025 0 0 0-.103-.57l.003.006a1.847 1.847 0 0 0-.399-.548l-.001-.001c-.422-.429-.832-.624-1.232-.581-.424.043-.901.312-1.434.806L10.869 21.998a1.139 1.139 0 0 1-.459.27l-.008.002a1.057 1.057 0 0 1-1.034-.241l.001.001a.907.907 0 0 1-.333-.702v-.009c0-.28.099-.528.299-.742L20.802 8.739c.912-.859 1.834-1.333 2.768-1.419 1.066-.086 2.043.301 2.933 1.162.843.795 1.216 1.731 1.117 2.806-.101 1.075-.64 2.086-1.616 3.032L10.767 30.03c-1.243 1.203-2.634 1.85-4.166 1.936a.801.801 0 0 0-.156.017l.005-.001a.754.754 0 0 1-.148.016z"/></symbol><symbol id="triangle-down" viewBox="0 0 15 10"><path d="M8 9H7L1 2V0h13v2L8 9Z"/></symbol></defs></svg>