<svg aria-hidden="true" style="position: absolute; width: 0; height: 0; overflow: hidden;" version="1.1" xmlns="http://www.w3.org/2000/svg" xmlns:xlink="http://www.w3.org/1999/xlink">
<defs>
<symbol id="icon_round-call" viewBox="0 0 32 32">
<path d="M25.64 20.347l-3.387-0.387c-0.093-0.012-0.201-0.018-0.31-0.018-0.733 0-1.396 0.297-1.876 0.778l-2.453 2.453c-3.803-1.962-6.824-4.984-8.734-8.675l-0.053-0.112 2.467-2.467c0.573-0.573 0.853-1.373 0.76-2.187l-0.387-3.36c-0.16-1.335-1.285-2.36-2.65-2.36-0.001 0-0.002 0-0.003 0h-2.306c-1.507 0-2.76 1.253-2.667 2.76 0.707 11.387 9.813 20.48 21.187 21.187 1.507 0.093 2.76-1.16 2.76-2.667v-2.307c0.013-1.347-1-2.48-2.347-2.64z"></path>
</symbol>
<symbol id="icon-burger-menu" viewBox="0 0 32 32">
<path d="M32 9c0 0.552-0.448 1-1 1v0h-30c-0.552 0-1-0.448-1-1s0.448-1 1-1v0h30c0.552 0 1 0.448 1 1v0zM32 25c0 0.552-0.448 1-1 1v0h-30c-0.552 0-1-0.448-1-1s0.448-1 1-1v0h30c0.552 0 1 0.448 1 1v0zM32 16.992c0 0.548-0.444 0.992-0.992 0.992v0h-30.016c-0.548 0-0.992-0.444-0.992-0.992s0.444-0.992 0.992-0.992v0h30.016c0.548 0 0.992 0.444 0.992 0.992z"></path>
</symbol>
<symbol id="icon-system-uicons_loader" viewBox="0 0 32 32">
<path d="M16 5.333v3.048M23.619 8.381l-2.285 2.285M8.381 8.381l2.285 2.285M16 26.667v-3.048M23.619 23.619l-2.285-2.285M8.381 23.619l2.285-2.285M5.333 16h3.048M23.619 16h3.048"></path>
</symbol>
<symbol id="icon-clarity_window-close-line" viewBox="0 0 32 32">
<path d="M18.613 15.912l12.96-12.96c0.268-0.309 0.431-0.716 0.431-1.161 0-0.982-0.796-1.777-1.777-1.777-0.445 0-0.851 0.163-1.163 0.433l0.002-0.002-12.96 12.96-12.96-12.979c-0.309-0.268-0.716-0.431-1.161-0.431-0.982 0-1.777 0.796-1.777 1.777 0 0.445 0.163 0.851 0.433 1.163l-0.002-0.002 12.96 12.977-12.979 12.96c-0.394 0.329-0.642 0.82-0.642 1.369 0 0.983 0.797 1.78 1.78 1.78 0.549 0 1.040-0.249 1.367-0.639l0.002-0.003 12.977-12.96 12.96 12.96c0.309 0.268 0.716 0.431 1.161 0.431 0.982 0 1.777-0.796 1.777-1.777 0-0.445-0.163-0.851-0.433-1.163l0.002 0.002-12.96-12.96z"></path>
</symbol>
<symbol id="icon-bi_arrow-up" viewBox="0 0 32 32">
<path d="M16.146 3.57c-0.001 0-0.002 0-0.004 0-0.501 0-0.907 0.406-0.907 0.907 0 0.003 0 0.006 0 0.009v-0 21.559l-5.721-5.755c-0.165-0.168-0.394-0.272-0.647-0.272-0.501 0-0.907 0.406-0.907 0.907 0 0.004 0 0.009 0 0.013v-0.001c0 0.244 0.096 0.476 0.267 0.647l7.275 7.314c0.165 0.165 0.394 0.267 0.646 0.267 0.125 0 0.244-0.025 0.352-0.070l-0.006 0.002c0.115-0.049 0.213-0.116 0.295-0.199l0-0 7.275-7.314c0.165-0.166 0.266-0.395 0.266-0.647s-0.102-0.481-0.266-0.647l0 0c-0.164-0.166-0.392-0.269-0.644-0.269s-0.48 0.103-0.644 0.269l-0 0-5.721 5.755v-21.559c-0.001-0.503-0.406-0.911-0.908-0.916h-0z"></path>
</symbol>
<symbol id="phone" viewBox="0 0 24 24">
  <path d="m19.23 15.26-2.54-.29a1.988 1.988 0 0 0-1.64.57l-1.84 1.84a15.045 15.045 0 0 1-6.59-6.59l1.85-1.85c.43-.43.64-1.03.57-1.64l-.29-2.52a2.001 2.001 0 0 0-1.99-1.77H5.03c-1.13 0-2.07.94-2 2.07.53 8.54 7.36 15.36 15.89 15.89 1.13.07 2.07-.87 2.07-2v-1.73c.01-1.01-.75-1.86-1.76-1.98Z"/>
</symbol>
<symbol id="popup-arrow" viewBox="0 0 30 19">
  <path d="M13.472.811a2 2 0 0 1 3.057 0l12.15 14.4c1.097 1.3.172 3.289-1.529 3.289H2.85c-1.701 0-2.626-1.99-1.528-3.29L13.472.811Z"/>
</symbol>

</defs>
</svg>
