<svg aria-hidden="true" style="position: absolute; width: 0; height: 0; overflow: hidden;" version="1.1" xmlns="http://www.w3.org/2000/svg" xmlns:xlink="http://www.w3.org/1999/xlink">
<defs>

<symbol id="phone" viewBox="0 0 24 24">
  <path d="m19.23 15.26-2.54-.29a1.988 1.988 0 0 0-1.64.57l-1.84 1.84a15.045 15.045 0 0 1-6.59-6.59l1.85-1.85c.43-.43.64-1.03.57-1.64l-.29-2.52a2.001 2.001 0 0 0-1.99-1.77H5.03c-1.13 0-2.07.94-2 2.07.53 8.54 7.36 15.36 15.89 15.89 1.13.07 2.07-.87 2.07-2v-1.73c.01-1.01-.75-1.86-1.76-1.98Z"/>
</symbol>

<symbol id="popup-arrow" viewBox="0 0 30 19">
  <path d="M13.472.811a2 2 0 0 1 3.057 0l12.15 14.4c1.097 1.3.172 3.289-1.529 3.289H2.85c-1.701 0-2.626-1.99-1.528-3.29L13.472.811Z"/>
</symbol>

</defs>
</svg>