<svg aria-hidden="true" style="position: absolute; width: 0; height: 0; overflow: hidden;" version="1.1" xmlns="http://www.w3.org/2000/svg" xmlns:xlink="http://www.w3.org/1999/xlink">
<defs>

<symbol id="phone2" viewBox="0 0 24 24">
  <path d="m19.23 15.26-2.54-.29a1.988 1.988 0 0 0-1.64.57l-1.84 1.84a15.045 15.045 0 0 1-6.59-6.59l1.85-1.85c.43-.43.64-1.03.57-1.64l-.29-2.52a2.001 2.001 0 0 0-1.99-1.77H5.03c-1.13 0-2.07.94-2 2.07.53 8.54 7.36 15.36 15.89 15.89 1.13.07 2.07-.87 2.07-2v-1.73c.01-1.01-.75-1.86-1.76-1.98Z"/>
</symbol>


<svg id="popup-arrow" viewBox="0 0 30 19">
  <path d="M13.472.811a2 2 0 0 1 3.057 0l12.15 14.4c1.097 1.3.172 3.289-1.529 3.289H2.85c-1.701 0-2.626-1.99-1.528-3.29L13.472.811Z"/>
</svg>

<symbol id="facebook" viewBox="0 0 32 32">
<path d="M21.33 5.312h2.922v-5.088c-1.232-0.143-2.66-0.224-4.107-0.224-0.052 0-0.104 0-0.157 0l0.008-0c-4.211 0-7.098 2.65-7.098 7.52v4.48h-4.648v5.688h4.648v14.312h5.699v-14.31h4.459l0.709-5.688h-5.168v-3.922c0-1.643 0.443-2.768 2.733-2.768z"></path>
</symbol>

<symbol id="instagram" viewBox="0 0 32 32">
<path d="M31.968 9.408c-0.074-1.701-0.349-2.869-0.742-3.882-0.424-1.111-1.054-2.059-1.85-2.837l-0.001-0.001c-0.78-0.792-1.724-1.419-2.778-1.827l-0.054-0.018c-1.019-0.394-2.181-0.667-3.882-0.742-1.712-0.082-2.256-0.101-6.602-0.101-4.344 0-4.888 0.019-6.595 0.094-1.699 0.074-2.869 0.349-3.88 0.742-1.112 0.424-2.060 1.054-2.839 1.85l-0.001 0.001c-0.791 0.78-1.418 1.724-1.825 2.778l-0.018 0.054c-0.395 1.019-0.669 2.181-0.744 3.882-0.082 1.712-0.101 2.256-0.101 6.602 0 4.344 0.019 4.888 0.094 6.595 0.075 1.701 0.35 2.869 0.744 3.882 0.426 1.11 1.055 2.057 1.849 2.837l0.001 0.001c0.78 0.792 1.724 1.418 2.778 1.825l0.054 0.018c1.019 0.395 2.182 0.67 3.882 0.744 1.707 0.075 2.251 0.094 6.595 0.094 4.346 0 4.89-0.019 6.595-0.094 1.701-0.074 2.869-0.349 3.882-0.742 2.157-0.85 3.833-2.526 4.664-4.628l0.019-0.055c0.394-1.019 0.669-2.182 0.744-3.882 0.075-1.707 0.093-2.251 0.093-6.595s-0.006-4.888-0.080-6.595zM29.088 22.474c-0.070 1.563-0.333 2.406-0.55 2.97-0.552 1.399-1.64 2.486-3.004 3.024l-0.036 0.012c-0.56 0.219-1.411 0.482-2.968 0.55-1.688 0.075-2.194 0.094-6.464 0.094-4.269 0-4.782-0.019-6.464-0.094-1.563-0.069-2.406-0.331-2.97-0.55-0.721-0.269-1.334-0.676-1.836-1.192l-0.001-0.001c-0.517-0.503-0.924-1.117-1.184-1.803l-0.011-0.034c-0.218-0.563-0.48-1.413-0.549-2.97-0.075-1.688-0.094-2.195-0.094-6.464 0-4.27 0.019-4.784 0.094-6.464 0.069-1.563 0.331-2.406 0.549-2.97 0.269-0.722 0.678-1.337 1.198-1.837l0.002-0.002c0.504-0.517 1.119-0.923 1.806-1.182l0.034-0.011c0.56-0.219 1.411-0.48 2.968-0.55 1.688-0.074 2.195-0.093 6.464-0.093 4.275 0 4.782 0.019 6.464 0.093 1.563 0.069 2.406 0.331 2.97 0.55 0.693 0.256 1.325 0.662 1.837 1.194 0.531 0.52 0.938 1.144 1.195 1.84 0.218 0.56 0.48 1.411 0.549 2.968 0.075 1.688 0.094 2.194 0.094 6.464 0 4.269-0.019 4.768-0.094 6.458z"></path>
<path d="M16.059 7.782c-4.539 0.002-8.218 3.682-8.219 8.221v0c0 0 0 0.001 0 0.002 0 4.541 3.681 8.222 8.222 8.222s8.222-3.681 8.222-8.222c0-4.541-3.681-8.222-8.222-8.222-0.001 0-0.001 0-0.002 0h0zM16.059 21.334c-2.945-0-5.332-2.388-5.332-5.333s2.388-5.333 5.333-5.333c0 0 0.001 0 0.001 0h-0c2.946 0 5.334 2.388 5.334 5.334s-2.388 5.334-5.334 5.334v0zM26.525 7.458c0 1.060-0.86 1.92-1.92 1.92s-1.92-0.86-1.92-1.92v0c0-1.060 0.86-1.92 1.92-1.92s1.92 0.86 1.92 1.92v0z"></path>
</symbol>

<symbol id="linkedin" viewBox="0 0 32 32">
<path d="M31.992 32h0.008v-11.738c0-5.741-1.235-10.163-7.947-10.163-3.227 0-5.392 1.77-6.277 3.45h-0.093v-2.914h-6.365v21.363h6.627v-10.578c0-2.786 0.528-5.48 3.978-5.48 3.398 0 3.45 3.179 3.45 5.658v10.402h6.619zM0.528 10.635h6.635v21.365h-6.635v-21.365zM3.843 0c-2.123 0-3.843 1.721-3.843 3.843v0c0 2.12 1.722 3.878 3.843 3.878 2.12 0 3.842-1.757 3.842-3.878s-1.72-3.841-3.841-3.843h-0z"></path>
</symbol>

<symbol id="twitter" viewBox="0 0 32 32">
<path d="M32 6.078c-1.1 0.493-2.376 0.857-3.713 1.028l-0.068 0.007c1.36-0.817 2.382-2.078 2.873-3.579l0.013-0.046c-1.197 0.722-2.591 1.273-4.076 1.573l-0.084 0.014c-1.2-1.279-2.9-2.076-4.787-2.076-3.622 0-6.558 2.936-6.558 6.558 0 0.001 0 0.003 0 0.004v-0c0 0.52 0.043 1.021 0.152 1.496-5.454-0.266-10.28-2.88-13.522-6.861-0.564 0.949-0.899 2.092-0.902 3.313v0.001c0 2.272 1.171 4.286 2.914 5.451-1.091-0.030-2.107-0.325-2.994-0.823l0.033 0.017v0.072c0.003 3.165 2.236 5.807 5.213 6.44l0.043 0.008c-0.499 0.136-1.071 0.215-1.662 0.215-0.020 0-0.041-0-0.061-0l0.003 0c-0.419 0-0.843-0.024-1.242-0.112 0.85 2.598 3.261 4.509 6.13 4.57-2.215 1.746-5.045 2.8-8.122 2.8-0.004 0-0.008 0-0.013 0h0.001c-0.018 0-0.040 0-0.062 0-0.531 0-1.055-0.034-1.569-0.099l0.061 0.006c2.826 1.846 6.287 2.944 10.004 2.944 0.021 0 0.042-0 0.063-0h-0.003c12.072 0 18.672-10 18.672-18.669 0-0.288-0.010-0.57-0.024-0.848 1.299-0.936 2.39-2.064 3.258-3.355l0.030-0.047z"></path>
</symbol>

<symbol id="logo" viewBox="0 0 69 57">
  <path d="m39.16 17.87-1.296-1a.983.983 0 0 0-1.385.14l-17.94 20.82.278.31L23.259 34a.697.697 0 0 1-.172-1.178.678.678 0 0 1 .44-.152.668.668 0 0 1 .643.48l5.857-5.49a.502.502 0 0 1 .634 0l.297.22a.49.49 0 0 0 .663-.08l7.658-8.68a.83.83 0 0 0 .224-.652.834.834 0 0 0-.343-.598 M47.59 23.73a39.836 39.836 0 0 1-12.981 6.15A69.718 69.718 0 0 1 20.489 32c.096.71.268 1.408.514 2.08 2.692 2.46 22.956-1.74 26.914-6.6.841-1.01-.326-3.75-.326-3.75ZM23.527 34a.668.668 0 0 1-.621-.42.686.686 0 0 1 .146-.74.671.671 0 0 1 1.148.48.677.677 0 0 1-.194.484.664.664 0 0 1-.479.196ZM4.38 22.29l.158-.69 2.573.59c.212.396.344.831.386 1.28.05.475.019.955-.09 1.42a3.775 3.775 0 0 1-.85 1.74 3.39 3.39 0 0 1-1.524 1 3.574 3.574 0 0 1-1.87.07 3.46 3.46 0 0 1-1.652-.88 3.306 3.306 0 0 1-.94-1.57 3.819 3.819 0 0 1 0-2c.106-.49.297-.957.564-1.38.252-.385.591-.704.989-.93l.356.55a2.844 2.844 0 0 0-.859.828 2.877 2.877 0 0 0-.447 1.112 3.152 3.152 0 0 0 .03 1.57c.133.486.396.926.762 1.27.375.367.845.62 1.355.73.495.14 1.02.14 1.514 0 .474-.158.9-.437 1.237-.81.346-.403.584-.888.693-1.41a3.1 3.1 0 0 0-.119-1.91l-2.266-.58ZM9.98 16l-2.305 3.11.99 1.79-.456.62-3.66-6.75.425-.59 7.45 1.62-.465.62L9.98 16Zm-.653-.16-3.958-.9 1.98 3.59 1.978-2.69Zm0-6.29.594-.45 3.77 5.1 3.107-2.35.376.51-3.69 2.79-4.157-5.6Zm6.234-4.17.663-.3 2.612 5.78 3.533-1.62.257.58-4.195 1.93-2.87-6.37Zm13.041 2.3.149.63-4.77 1.13-1.583-6.82 4.631-1.09.139.62-3.958.93.564 2.42 3.483-.83.148.62-3.493.82.594 2.53 4.096-.96Zm6.798.25-1.652-2.2c-.184.01-.37.01-.554 0l-1.86.06.069 2.22h-.732l-.228-7L33.075 1a3.102 3.102 0 0 1 2.098.57 2.22 2.22 0 0 1 .811 1.74c.03.494-.1.985-.366 1.4a2.307 2.307 0 0 1-1.148.85l1.732 2.34-.801.03Zm-.692-3.29a1.59 1.59 0 0 0 .505-1.31 1.624 1.624 0 0 0-.584-1.28 2.385 2.385 0 0 0-1.554-.41l-1.88.07.119 3.5 1.84-.06a2.358 2.358 0 0 0 1.554-.51Zm5.927 1.43-.356 2.39-.723-.11.366-2.35-2.048-5 .772.12 1.751 4.26 2.969-3.53.692.15-3.423 4.07Zm9.785-.42.862 1.13-.376.3-.861-1.16-.544 1.31-.416-.18.554-1.31-1.425.19v-.48l1.405-.16-.87-1.13.386-.3.762 1.14.534-1.32.425.18-.504 1.34 1.425-.2v.49l-1.356.16Zm3.306 8.06a2.788 2.788 0 0 1-.426-1.21l.584-.26c.044.396.172.778.376 1.12.221.383.51.722.851 1 .353.341.803.562 1.286.63a1.069 1.069 0 0 0 .93-.39.903.903 0 0 0 .228-.68 1.853 1.853 0 0 0-.237-.69 10.48 10.48 0 0 0-.604-.89 9.102 9.102 0 0 1-.712-1.1 2.016 2.016 0 0 1-.258-.94c0-.37.138-.728.386-1 .216-.264.5-.461.822-.57a1.96 1.96 0 0 1 1.098 0c.462.153.89.398 1.257.72.304.256.574.552.801.88.21.304.367.642.465 1l-.564.3a3.536 3.536 0 0 0-.435-.94 3.595 3.595 0 0 0-.663-.69 2.187 2.187 0 0 0-1.277-.61 1.058 1.058 0 0 0-.93.41.863.863 0 0 0-.227.68c.023.252.104.495.237.71.139.23.337.53.604.89.265.34.503.702.712 1.08.165.286.256.61.267.94 0 .37-.137.728-.386 1a1.76 1.76 0 0 1-.83.57c-.359.11-.741.11-1.1 0a3.66 3.66 0 0 1-1.266-.72 4.538 4.538 0 0 1-.99-1.24Zm9.954 1.46-1.395-2 .514-.37 3.216 4.64-.514.37-1.396-2-5.165 3.65-.415-.61 5.155-3.68Zm-2.216 8.22c.176-.604.52-1.146.989-1.56a3.498 3.498 0 0 1 1.623-.83 3.545 3.545 0 0 1 1.86.07 3.52 3.52 0 0 1 1.514 1c.426.496.716 1.096.841 1.74a3.85 3.85 0 0 1 0 1.93 3.424 3.424 0 0 1-.99 1.56 3.634 3.634 0 0 1-3.533.78 3.312 3.312 0 0 1-1.513-1 3.777 3.777 0 0 1-.841-1.73 3.89 3.89 0 0 1 .05-1.96Zm1.296 3.18c.33.38.758.66 1.237.81a3.036 3.036 0 0 0 2.87-.64c.364-.34.634-.77.78-1.25a3.253 3.253 0 0 0-.642-2.94 2.816 2.816 0 0 0-1.277-.81 2.938 2.938 0 0 0-1.524 0 2.72 2.72 0 0 0-1.345.69c-.369.34-.639.776-.782 1.26a3.032 3.032 0 0 0 0 1.55c.108.496.344.955.683 1.33ZM60.711 35l2.563-1c0-.18.06-.36.11-.55l.484-1.81-2.098-.55.188-.71 6.69 1.81-.674 2.53a3.175 3.175 0 0 1-1.148 1.86 2.124 2.124 0 0 1-1.88.28 2.145 2.145 0 0 1-1.213-.754 2.184 2.184 0 0 1-.479-1.356l-2.73 1 .187-.75Zm3.315.28a1.795 1.795 0 0 0 1.1.87 1.763 1.763 0 0 0 1.384-.2c.437-.355.735-.854.84-1.41l.476-1.8-3.354-.91-.475 1.8a2.434 2.434 0 0 0 .03 1.65Zm-6.866 6.16-.505-.39 2.968-3.95 5.521 4.23-2.87 3.83-.504-.39 2.425-3.23-1.98-1.51-2.167 2.89-.494-.38 2.216-2.89-2.048-1.57-2.563 3.36Zm-2.316 7.97-1.415.08v-.48l1.415-.01-.762-1.19.386-.25.752 1.2.613-1.34.426.23-.673 1.26 1.415-.08v.49h-1.435l.762 1.19-.386.25-.752-1.2-.653 1.3-.415-.24.722-1.21Zm-12.864-.8 1.198.67c.2-.39.48-.732.822-1.004a3.065 3.065 0 0 1 1.157-.576 3.096 3.096 0 0 1 1.217-.13c.356.028.698.152.99.36.263.2.457.48.553.8.12.395.099.82-.059 1.2a4.999 4.999 0 0 1-.99 1.39c.327.177.63.396.9.65.188.195.326.431.407.69a1.344 1.344 0 0 1-.258 1.17 1.9 1.9 0 0 1-1.108.77 1.704 1.704 0 0 1-1.227 0 1.237 1.237 0 0 1-.712-.85 1.374 1.374 0 0 1 .069-1 4.8 4.8 0 0 1 .88-1.23l-2.384-1.34a4.811 4.811 0 0 0-.06 1.43h-.603a4.83 4.83 0 0 1 .198-1.74l-1.247-.7.257-.56Zm1.722 1 2.622 1.47c.344-.332.628-.72.841-1.15.11-.29.11-.61 0-.9a1.083 1.083 0 0 0-.692-.75 1.96 1.96 0 0 0-1.267 0c-.336.09-.648.252-.914.477a2.398 2.398 0 0 0-.63.823l.04.03Zm3.72 4a.905.905 0 0 0 .08-.74 1.234 1.234 0 0 0-.317-.52 4.273 4.273 0 0 0-.821-.55c-.3.3-.563.636-.782 1a1.01 1.01 0 0 0-.079.74.842.842 0 0 0 .435.53c.252.096.53.096.782 0 .27-.072.504-.239.663-.47l.04.01Zm-17.503 2.71.138-7h.703l-.11 5.6 2.811-4.66h.346L36.44 55l.1-5.57h.702l-.129 7h-.603L33.6 51.2l-3.077 5.13-.603-.01ZM26.475 49c.453.436.776.99.935 1.601a3.446 3.446 0 0 1-.034 1.859 3.569 3.569 0 0 1-.94 1.63c-.44.437-.992.742-1.593.88a3.8 3.8 0 0 1-1.92-.06A3.71 3.71 0 0 1 21.26 54a3.368 3.368 0 0 1-.92-1.58 3.727 3.727 0 0 1 .032-1.893 3.697 3.697 0 0 1 .957-1.627 3.405 3.405 0 0 1 1.563-.9 3.77 3.77 0 0 1 1.91.06 3.718 3.718 0 0 1 1.672.94Zm-3.374-.35a2.634 2.634 0 0 0-1.276.72 2.897 2.897 0 0 0-.752 1.33c-.139.5-.139 1.03 0 1.53.116.487.367.93.722 1.28.372.368.832.633 1.336.77.503.13 1.03.13 1.533 0a2.8 2.8 0 0 0 1.287-.72 2.95 2.95 0 0 0 .752-1.33 2.91 2.91 0 0 0 0-1.54 2.817 2.817 0 0 0-.732-1.28 2.96 2.96 0 0 0-1.346-.76 2.83 2.83 0 0 0-1.524 0ZM15.61 44l.268 2.75c.17.073.335.157.494.25l1.613.94L19.074 46l.643.37-3.463 6.03-2.256-1.31a3.166 3.166 0 0 1-1.485-1.6 2.222 2.222 0 0 1 .218-1.9c.23-.438.595-.79 1.04-1 .45-.189.95-.227 1.424-.11l-.287-2.94.703.46Zm-1.127 3.16a1.776 1.776 0 0 0-1.112.85 1.814 1.814 0 0 0-.165 1.4c.232.518.634.938 1.138 1.19l1.593.93 1.732-3-1.593-.93a2.427 2.427 0 0 0-1.594-.49v.05Zm-4.73-7.85.445-.45 3.414 3.55-4.948 4.88-3.295-3.44.456-.45 2.8 2.91 1.692-1.73L7.863 42l.475-.46 2.503 2.6 1.84-1.81-2.928-3.02ZM2.4 35.38 2.639 34l.465.07-.267 1.42L4.152 35l.159.44-1.336.46 1.098.94-.317.36-1.058-1-.248 1.42-.475-.09.277-1.42-1.325.48-.149-.39 1.326-.47-1.098-.93.326-.36 1.069.94Z"/>
</symbol>

<symbol id="phone" viewBox="0 0 32 32"> //use stroke, not fill
<path  stroke-linejoin="round" stroke-linecap="round" stroke-miterlimit="4" stroke-width="1.3333" d="M26.667 21.337v3.217c0 0.003 0 0.006 0 0.009 0 1.186-0.961 2.147-2.147 2.147-0.068 0-0.134-0.003-0.2-0.009l0.008 0.001c-3.481-0.388-6.626-1.563-9.338-3.343l0.081 0.050c-2.608-1.675-4.761-3.828-6.386-6.353l-0.050-0.083c-1.736-2.644-2.912-5.804-3.285-9.205l-0.008-0.095c-0.006-0.058-0.009-0.125-0.009-0.193 0-1.185 0.96-2.145 2.145-2.145h3.219c0.006-0 0.013-0 0.020-0 1.079 0 1.972 0.797 2.123 1.834l0.001 0.012c0.136 1.029 0.387 2.040 0.751 3.013 0.087 0.224 0.137 0.484 0.137 0.755 0 0.588-0.237 1.121-0.62 1.509l-1.362 1.361c1.555 2.7 3.736 4.881 6.353 6.392l0.083 0.044 1.363-1.361c0.388-0.383 0.92-0.619 1.509-0.619 0.271 0 0.53 0.050 0.769 0.142l-0.015-0.005c0.973 0.363 1.984 0.613 3.013 0.751 1.050 0.151 1.847 1.045 1.847 2.125 0 0.019-0 0.037-0.001 0.056l0-0.003z" />
</symbol>

<symbol id="mail" viewBox="0 0 32 32"> //use stroke, not fill
<path  stroke-linejoin="round" stroke-linecap="round" stroke-miterlimit="4" stroke-width="1.3333" d="M6.4 6.667h19.2c1.32 0 2.4 1.049 2.4 2.333v14c0 1.283-1.080 2.333-2.4 2.333h-19.2c-1.32 0-2.4-1.051-2.4-2.333v-14c0-1.284 1.080-2.333 2.4-2.333 M26.667 9.333l-10.667 8-10.667-8" />
</symbol>

<symbol id="map-pin" viewBox="0 0 32 32"> //use stroke, not fill
<path stroke-linejoin="round" stroke-linecap="round" stroke-miterlimit="4" stroke-width="1.3333" d="M26.667 13.819c0 7.635-10.667 14.181-10.667 14.181s-10.667-6.547-10.667-14.181c0-5.423 4.776-9.819 10.667-9.819s10.667 4.396 10.667 9.819v0 M16 18.667c2.209 0 4-1.791 4-4s-1.791-4-4-4v0c-2.209 0-4 1.791-4 4s1.791 4 4 4v0z" />
</symbol>


<symbol id="copyright" viewBox="0 0 12 12">
  <path d="M5.928 4.284c.768.036.966.69.978.996H7.98c-.048-1.188-.894-1.914-2.07-1.914-1.326 0-2.31.834-2.31 2.718 0 1.164.558 2.544 2.304 2.544 1.332 0 2.046-.99 2.064-1.77H6.894c-.018.354-.27.828-.978.864C5.13 7.698 4.8 7.086 4.8 6.084c0-1.734.768-1.788 1.128-1.8ZM6 0C2.688 0 0 2.688 0 6s2.688 6 6 6 6-2.688 6-6-2.688-6-6-6Zm0 10.8A4.806 4.806 0 0 1 1.2 6c0-2.646 2.154-4.8 4.8-4.8s4.8 2.154 4.8 4.8-2.154 4.8-4.8 4.8Z"/>
</symbol>

<symbol id="close" viewBox="0 0 19 19">
  <path  d="M18.667 1.88 16.787 0 9.333 7.453 1.88 0 0 1.88l7.453 7.453L0 16.787l1.88 1.88 7.453-7.454 7.454 7.454 1.88-1.88-7.454-7.454 7.454-7.453Z"/>
</symbol>

<svg id="menu" viewBox="0 0 24 16">
  <path fill-rule="evenodd" d="M0 2.667V0h24v2.667H0Zm0 6.666h24V6.667H0v2.666ZM0 16h24v-2.667H0V16Z" clip-rule="evenodd"/>
</svg>

</defs>
</svg>